<mxfile host="app.diagrams.net" modified="2024-05-08T16:08:55.814Z" agent="Mozilla/5.0 (X11; Linux x86_64) AppleWebKit/537.36 (KHTML, like Gecko) Chrome/124.0.0.0 Safari/537.36" etag="Yej19u4xS4ds-n8B6T7Y" version="24.2.1" type="device">
  <diagram name="Page-1" id="b98fa263-6416-c6ec-5b7d-78bf54ef71d0">
    <mxGraphModel dx="2200" dy="1195" grid="1" gridSize="10" guides="1" tooltips="1" connect="1" arrows="1" fold="1" page="1" pageScale="1.5" pageWidth="1500" pageHeight="1000" background="none" math="0" shadow="0">
      <root>
        <mxCell id="0" style=";html=1;" />
        <mxCell id="1" style=";html=1;" parent="0" />
        <mxCell id="303ed1de8c2c98b4-4" value="CamiCandy&lt;div&gt;Login&lt;/div&gt;" style="whiteSpace=wrap;html=1;rounded=1;shadow=1;strokeWidth=1;fontSize=16;align=center;fillColor=#f5f5f5;strokeColor=#666666;" parent="1" vertex="1">
          <mxGeometry x="2096.5" y="320" width="300" height="105" as="geometry" />
        </mxCell>
        <mxCell id="303ed1de8c2c98b4-6" value="Transacciones" style="whiteSpace=wrap;html=1;rounded=1;shadow=1;strokeWidth=1;fontSize=16;align=center;fillColor=#f5f5f5;strokeColor=#666666;" parent="1" vertex="1">
          <mxGeometry x="2986.5" y="735" width="275" height="40" as="geometry" />
        </mxCell>
        <mxCell id="303ed1de8c2c98b4-7" value="Productos" style="whiteSpace=wrap;html=1;rounded=1;shadow=1;strokeWidth=1;fontSize=16;align=center;fillColor=#f5f5f5;strokeColor=#666666;" parent="1" vertex="1">
          <mxGeometry x="2046.5" y="735" width="275" height="40" as="geometry" />
        </mxCell>
        <mxCell id="303ed1de8c2c98b4-8" value="Herramientas" style="whiteSpace=wrap;html=1;rounded=1;shadow=1;strokeWidth=1;fontSize=16;align=center;fillColor=#f5f5f5;strokeColor=#666666;" parent="1" vertex="1">
          <mxGeometry x="3288.5" y="735" width="275" height="40" as="geometry" />
        </mxCell>
        <mxCell id="303ed1de8c2c98b4-17" value="Realizar respaldo" style="whiteSpace=wrap;html=1;rounded=1;shadow=1;strokeWidth=1;fontSize=16;align=center;fillColor=#f5f5f5;strokeColor=#666666;" parent="1" vertex="1">
          <mxGeometry x="3362.75" y="797.5" width="125" height="80" as="geometry" />
        </mxCell>
        <mxCell id="303ed1de8c2c98b4-18" value="Recuperar&amp;nbsp;&lt;div&gt;datos&lt;/div&gt;" style="whiteSpace=wrap;html=1;rounded=1;shadow=1;strokeWidth=1;fontSize=16;align=center;fillColor=#f5f5f5;strokeColor=#666666;" parent="1" vertex="1">
          <mxGeometry x="3364.25" y="1252.5" width="125" height="80" as="geometry" />
        </mxCell>
        <mxCell id="303ed1de8c2c98b4-27" value="Agregar&lt;div&gt;&amp;nbsp;Usuario&lt;/div&gt;" style="whiteSpace=wrap;html=1;rounded=1;shadow=1;strokeWidth=1;fontSize=16;align=center;fillColor=#f5f5f5;strokeColor=#666666;" parent="1" vertex="1">
          <mxGeometry x="3362.75" y="907.5" width="125" height="80" as="geometry" />
        </mxCell>
        <mxCell id="303ed1de8c2c98b4-37" value="&lt;span&gt;Eliminar&amp;nbsp;&lt;/span&gt;&lt;div&gt;&lt;span&gt;Usuario&lt;/span&gt;&lt;/div&gt;" style="whiteSpace=wrap;html=1;rounded=1;shadow=1;strokeWidth=1;fontSize=16;align=center;fillColor=#f5f5f5;strokeColor=#666666;" parent="1" vertex="1">
          <mxGeometry x="3362.75" y="1017.5" width="125" height="80" as="geometry" />
        </mxCell>
        <mxCell id="w7AkxN-CYHz_eCSMkKLC-25" value="" style="endArrow=none;html=1;rounded=0;exitX=0.5;exitY=0;exitDx=0;exitDy=0;" parent="1" source="303ed1de8c2c98b4-7" edge="1">
          <mxGeometry width="50" height="50" relative="1" as="geometry">
            <mxPoint x="2208.5" y="720" as="sourcePoint" />
            <mxPoint x="2184.5" y="700" as="targetPoint" />
          </mxGeometry>
        </mxCell>
        <mxCell id="w7AkxN-CYHz_eCSMkKLC-26" value="" style="endArrow=none;html=1;rounded=0;exitX=0.5;exitY=0;exitDx=0;exitDy=0;" parent="1" edge="1">
          <mxGeometry width="50" height="50" relative="1" as="geometry">
            <mxPoint x="2505.5699999999997" y="735" as="sourcePoint" />
            <mxPoint x="2505.5699999999997" y="700" as="targetPoint" />
          </mxGeometry>
        </mxCell>
        <mxCell id="w7AkxN-CYHz_eCSMkKLC-27" value="" style="endArrow=none;html=1;rounded=0;exitX=0.5;exitY=0;exitDx=0;exitDy=0;" parent="1" edge="1">
          <mxGeometry width="50" height="50" relative="1" as="geometry">
            <mxPoint x="2820.58" y="735" as="sourcePoint" />
            <mxPoint x="2820.58" y="700" as="targetPoint" />
          </mxGeometry>
        </mxCell>
        <mxCell id="w7AkxN-CYHz_eCSMkKLC-28" value="" style="endArrow=none;html=1;rounded=0;" parent="1" edge="1">
          <mxGeometry width="50" height="50" relative="1" as="geometry">
            <mxPoint x="2185.75" y="700" as="sourcePoint" />
            <mxPoint x="4350" y="700" as="targetPoint" />
          </mxGeometry>
        </mxCell>
        <mxCell id="w7AkxN-CYHz_eCSMkKLC-29" value="" style="endArrow=none;html=1;rounded=0;exitX=0.5;exitY=0;exitDx=0;exitDy=0;entryX=0.54;entryY=1.048;entryDx=0;entryDy=0;entryPerimeter=0;" parent="1" edge="1" target="w7AkxN-CYHz_eCSMkKLC-56">
          <mxGeometry width="50" height="50" relative="1" as="geometry">
            <mxPoint x="3122.41" y="735" as="sourcePoint" />
            <mxPoint x="3122.41" y="700" as="targetPoint" />
          </mxGeometry>
        </mxCell>
        <mxCell id="w7AkxN-CYHz_eCSMkKLC-30" value="" style="endArrow=none;html=1;rounded=0;entryX=0.5;entryY=1;entryDx=0;entryDy=0;" parent="1" target="303ed1de8c2c98b4-4" edge="1">
          <mxGeometry width="50" height="50" relative="1" as="geometry">
            <mxPoint x="2246.5" y="470" as="sourcePoint" />
            <mxPoint x="2360.41" y="480" as="targetPoint" />
          </mxGeometry>
        </mxCell>
        <mxCell id="w7AkxN-CYHz_eCSMkKLC-32" value="" style="endArrow=none;html=1;rounded=0;" parent="1" edge="1">
          <mxGeometry width="50" height="50" relative="1" as="geometry">
            <mxPoint x="3422.37" y="735" as="sourcePoint" />
            <mxPoint x="3422.5" y="700" as="targetPoint" />
          </mxGeometry>
        </mxCell>
        <mxCell id="w7AkxN-CYHz_eCSMkKLC-33" value="" style="endArrow=none;html=1;rounded=0;" parent="1" edge="1">
          <mxGeometry width="50" height="50" relative="1" as="geometry">
            <mxPoint x="4034.43" y="735.32" as="sourcePoint" />
            <mxPoint x="4034.56" y="700.32" as="targetPoint" />
          </mxGeometry>
        </mxCell>
        <mxCell id="w7AkxN-CYHz_eCSMkKLC-34" value="Reportes" style="whiteSpace=wrap;html=1;rounded=1;shadow=1;strokeWidth=1;fontSize=16;align=center;fillColor=#f5f5f5;strokeColor=#666666;" parent="1" vertex="1">
          <mxGeometry x="4213.75" y="735" width="275" height="40" as="geometry" />
        </mxCell>
        <mxCell id="w7AkxN-CYHz_eCSMkKLC-35" value="Productos" style="whiteSpace=wrap;html=1;rounded=1;shadow=1;strokeWidth=1;fontSize=16;align=center;fillColor=#f5f5f5;strokeColor=#666666;" parent="1" vertex="1">
          <mxGeometry x="4288.75" y="797.5" width="125" height="80" as="geometry" />
        </mxCell>
        <mxCell id="w7AkxN-CYHz_eCSMkKLC-36" value="Clientes" style="whiteSpace=wrap;html=1;rounded=1;shadow=1;strokeWidth=1;fontSize=16;align=center;fillColor=#f5f5f5;strokeColor=#666666;" parent="1" vertex="1">
          <mxGeometry x="4288.75" y="1232.5" width="125" height="80" as="geometry" />
        </mxCell>
        <mxCell id="w7AkxN-CYHz_eCSMkKLC-37" value="&lt;span&gt;Prooveedores&lt;/span&gt;" style="whiteSpace=wrap;html=1;rounded=1;shadow=1;strokeWidth=1;fontSize=16;align=center;fillColor=#f5f5f5;strokeColor=#666666;" parent="1" vertex="1">
          <mxGeometry x="4288.75" y="907.5" width="125" height="80" as="geometry" />
        </mxCell>
        <mxCell id="w7AkxN-CYHz_eCSMkKLC-38" value="&lt;span&gt;Compras&lt;/span&gt;" style="whiteSpace=wrap;html=1;rounded=1;shadow=1;strokeWidth=1;fontSize=16;align=center;fillColor=#f5f5f5;strokeColor=#666666;" parent="1" vertex="1">
          <mxGeometry x="4288.75" y="1125" width="125" height="80" as="geometry" />
        </mxCell>
        <mxCell id="w7AkxN-CYHz_eCSMkKLC-39" value="&lt;span&gt;Ventas&lt;/span&gt;" style="whiteSpace=wrap;html=1;rounded=1;shadow=1;strokeWidth=1;fontSize=16;align=center;fillColor=#f5f5f5;strokeColor=#666666;" parent="1" vertex="1">
          <mxGeometry x="4288.75" y="1017.5" width="125" height="80" as="geometry" />
        </mxCell>
        <mxCell id="w7AkxN-CYHz_eCSMkKLC-56" value="&lt;div&gt;Menú&lt;/div&gt;Interfaz de Administrador" style="whiteSpace=wrap;html=1;rounded=1;shadow=1;strokeWidth=1;fontSize=16;align=center;fillColor=#f5f5f5;strokeColor=#666666;" parent="1" vertex="1">
          <mxGeometry x="2960" y="510" width="300" height="105" as="geometry" />
        </mxCell>
        <mxCell id="w7AkxN-CYHz_eCSMkKLC-58" value="&lt;div&gt;Menú&lt;/div&gt;Interfaz de Empleado" style="whiteSpace=wrap;html=1;rounded=1;shadow=1;strokeWidth=1;fontSize=16;align=center;fillColor=#f5f5f5;strokeColor=#666666;" parent="1" vertex="1">
          <mxGeometry x="1250" y="520" width="300" height="105" as="geometry" />
        </mxCell>
        <mxCell id="w7AkxN-CYHz_eCSMkKLC-60" value="" style="endArrow=none;html=1;rounded=0;" parent="1" edge="1">
          <mxGeometry width="50" height="50" relative="1" as="geometry">
            <mxPoint x="1400" y="470" as="sourcePoint" />
            <mxPoint x="2250" y="470" as="targetPoint" />
          </mxGeometry>
        </mxCell>
        <mxCell id="w7AkxN-CYHz_eCSMkKLC-61" value="" style="endArrow=none;html=1;rounded=0;" parent="1" edge="1">
          <mxGeometry width="50" height="50" relative="1" as="geometry">
            <mxPoint x="2250" y="470" as="sourcePoint" />
            <mxPoint x="3100" y="470" as="targetPoint" />
          </mxGeometry>
        </mxCell>
        <mxCell id="w7AkxN-CYHz_eCSMkKLC-62" value="" style="endArrow=none;html=1;rounded=0;entryX=0.5;entryY=1;entryDx=0;entryDy=0;" parent="1" source="w7AkxN-CYHz_eCSMkKLC-58" edge="1">
          <mxGeometry width="50" height="50" relative="1" as="geometry">
            <mxPoint x="1400" y="515" as="sourcePoint" />
            <mxPoint x="1400" y="470" as="targetPoint" />
          </mxGeometry>
        </mxCell>
        <mxCell id="w7AkxN-CYHz_eCSMkKLC-63" value="" style="endArrow=none;html=1;rounded=0;" parent="1" edge="1">
          <mxGeometry width="50" height="50" relative="1" as="geometry">
            <mxPoint x="3100" y="510" as="sourcePoint" />
            <mxPoint x="3100" y="470" as="targetPoint" />
          </mxGeometry>
        </mxCell>
        <mxCell id="w7AkxN-CYHz_eCSMkKLC-187" value="modificar&lt;div&gt;&amp;nbsp;usuario&lt;/div&gt;" style="whiteSpace=wrap;html=1;rounded=1;shadow=1;strokeWidth=1;fontSize=16;align=center;fillColor=#f5f5f5;strokeColor=#666666;" parent="1" vertex="1">
          <mxGeometry x="3362.75" y="1132.5" width="126.5" height="80" as="geometry" />
        </mxCell>
        <mxCell id="w7AkxN-CYHz_eCSMkKLC-192" value="Proveedores" style="whiteSpace=wrap;html=1;rounded=1;shadow=1;strokeWidth=1;fontSize=16;align=center;fillColor=#f5f5f5;strokeColor=#666666;" parent="1" vertex="1">
          <mxGeometry x="2686.5" y="735" width="275" height="40" as="geometry" />
        </mxCell>
        <mxCell id="w7AkxN-CYHz_eCSMkKLC-205" value="Transacciones" style="whiteSpace=wrap;html=1;rounded=1;shadow=1;strokeWidth=1;fontSize=16;align=center;fillColor=#f5f5f5;strokeColor=#666666;" parent="1" vertex="1">
          <mxGeometry x="1270" y="732.5" width="275" height="40" as="geometry" />
        </mxCell>
        <mxCell id="w7AkxN-CYHz_eCSMkKLC-210" value="Realizar&amp;nbsp;&lt;div&gt;Venta&lt;/div&gt;" style="whiteSpace=wrap;html=1;rounded=1;shadow=1;strokeWidth=1;fontSize=16;align=center;fillColor=#f5f5f5;strokeColor=#666666;" parent="1" vertex="1">
          <mxGeometry x="1337.5" y="805" width="125" height="80" as="geometry" />
        </mxCell>
        <mxCell id="w7AkxN-CYHz_eCSMkKLC-226" value="Ayuda" style="whiteSpace=wrap;html=1;rounded=1;shadow=1;strokeWidth=1;fontSize=16;align=center;fillColor=#f5f5f5;strokeColor=#666666;" parent="1" vertex="1">
          <mxGeometry x="1580" y="732.5" width="275" height="40" as="geometry" />
        </mxCell>
        <mxCell id="w7AkxN-CYHz_eCSMkKLC-227" value="Acerca de" style="whiteSpace=wrap;html=1;rounded=1;shadow=1;strokeWidth=1;fontSize=16;align=center;fillColor=#f5f5f5;strokeColor=#666666;" parent="1" vertex="1">
          <mxGeometry x="1655" y="802.5" width="125" height="80" as="geometry" />
        </mxCell>
        <mxCell id="w7AkxN-CYHz_eCSMkKLC-228" value="Manual de Usuario" style="whiteSpace=wrap;html=1;rounded=1;shadow=1;strokeWidth=1;fontSize=16;align=center;fillColor=#f5f5f5;strokeColor=#666666;" parent="1" vertex="1">
          <mxGeometry x="1655" y="910" width="125" height="80" as="geometry" />
        </mxCell>
        <mxCell id="w7AkxN-CYHz_eCSMkKLC-233" value="" style="endArrow=none;html=1;rounded=0;exitX=0.5;exitY=0;exitDx=0;exitDy=0;" parent="1" edge="1">
          <mxGeometry width="50" height="50" relative="1" as="geometry">
            <mxPoint x="1104.08" y="732.5" as="sourcePoint" />
            <mxPoint x="1104.08" y="697.5" as="targetPoint" />
          </mxGeometry>
        </mxCell>
        <mxCell id="w7AkxN-CYHz_eCSMkKLC-234" value="" style="endArrow=none;html=1;rounded=0;" parent="1" edge="1">
          <mxGeometry width="50" height="50" relative="1" as="geometry">
            <mxPoint x="1100" y="697.5" as="sourcePoint" />
            <mxPoint x="1720" y="697.5" as="targetPoint" />
          </mxGeometry>
        </mxCell>
        <mxCell id="w7AkxN-CYHz_eCSMkKLC-237" value="" style="endArrow=none;html=1;rounded=0;" parent="1" edge="1">
          <mxGeometry width="50" height="50" relative="1" as="geometry">
            <mxPoint x="1717.1799999999998" y="732.5" as="sourcePoint" />
            <mxPoint x="1717.31" y="697.5" as="targetPoint" />
          </mxGeometry>
        </mxCell>
        <mxCell id="w7AkxN-CYHz_eCSMkKLC-252" value="Clientes" style="whiteSpace=wrap;html=1;rounded=1;shadow=1;strokeWidth=1;fontSize=16;align=center;fillColor=#f5f5f5;strokeColor=#666666;" parent="1" vertex="1">
          <mxGeometry x="970" y="732.5" width="275" height="40" as="geometry" />
        </mxCell>
        <mxCell id="w7AkxN-CYHz_eCSMkKLC-254" value="Modificar" style="whiteSpace=wrap;html=1;rounded=1;shadow=1;strokeWidth=1;fontSize=16;align=center;fillColor=#f5f5f5;strokeColor=#666666;" parent="1" vertex="1">
          <mxGeometry x="1040" y="910" width="125" height="80" as="geometry" />
        </mxCell>
        <mxCell id="w7AkxN-CYHz_eCSMkKLC-255" value="Eliminar" style="whiteSpace=wrap;html=1;rounded=1;shadow=1;strokeWidth=1;fontSize=16;align=center;fillColor=#f5f5f5;strokeColor=#666666;" parent="1" vertex="1">
          <mxGeometry x="1040" y="1012.5" width="125" height="80" as="geometry" />
        </mxCell>
        <mxCell id="w7AkxN-CYHz_eCSMkKLC-259" value="Índices de Búsqueda" style="whiteSpace=wrap;html=1;rounded=1;shadow=1;strokeWidth=1;fontSize=16;align=center;fillColor=#f5f5f5;strokeColor=#666666;" parent="1" vertex="1">
          <mxGeometry x="1655" y="1012.5" width="125" height="80" as="geometry" />
        </mxCell>
        <mxCell id="w7AkxN-CYHz_eCSMkKLC-265" value="" style="endArrow=none;html=1;rounded=0;entryX=0.5;entryY=1;entryDx=0;entryDy=0;" parent="1" target="w7AkxN-CYHz_eCSMkKLC-58" edge="1">
          <mxGeometry width="50" height="50" relative="1" as="geometry">
            <mxPoint x="1400" y="730" as="sourcePoint" />
            <mxPoint x="1420" y="690" as="targetPoint" />
          </mxGeometry>
        </mxCell>
        <mxCell id="w7AkxN-CYHz_eCSMkKLC-253" value="Agregar" style="whiteSpace=wrap;html=1;rounded=1;shadow=1;strokeWidth=1;fontSize=16;align=center;fillColor=#f5f5f5;strokeColor=#666666;" parent="1" vertex="1">
          <mxGeometry x="1040" y="802.5" width="125" height="80" as="geometry" />
        </mxCell>
        <mxCell id="EWDZrCvJoFyOOxtHa1C8-5" value="" style="shape=partialRectangle;whiteSpace=wrap;html=1;top=0;left=0;fillColor=none;rotation=90;" parent="1" vertex="1">
          <mxGeometry x="872.5" y="900" width="293.75" height="38.75" as="geometry" />
        </mxCell>
        <mxCell id="EWDZrCvJoFyOOxtHa1C8-7" value="" style="shape=partialRectangle;whiteSpace=wrap;html=1;bottom=0;right=0;fillColor=none;rotation=-90;" parent="1" vertex="1">
          <mxGeometry x="928.75" y="843.75" width="180" height="37.5" as="geometry" />
        </mxCell>
        <mxCell id="EWDZrCvJoFyOOxtHa1C8-8" value="" style="shape=partialRectangle;whiteSpace=wrap;html=1;bottom=0;right=0;fillColor=none;rotation=-90;" parent="1" vertex="1">
          <mxGeometry x="984.69" y="788.44" width="69.38" height="37.5" as="geometry" />
        </mxCell>
        <mxCell id="EWDZrCvJoFyOOxtHa1C8-9" value="" style="shape=partialRectangle;whiteSpace=wrap;html=1;bottom=0;right=0;fillColor=none;rotation=-90;" parent="1" vertex="1">
          <mxGeometry x="1283.75" y="788.76" width="66.88" height="34.37" as="geometry" />
        </mxCell>
        <mxCell id="EWDZrCvJoFyOOxtHa1C8-12" value="" style="shape=partialRectangle;whiteSpace=wrap;html=1;top=0;left=0;fillColor=none;rotation=90;" parent="1" vertex="1">
          <mxGeometry x="1490" y="900.32" width="293.75" height="38.75" as="geometry" />
        </mxCell>
        <mxCell id="EWDZrCvJoFyOOxtHa1C8-13" value="" style="shape=partialRectangle;whiteSpace=wrap;html=1;bottom=0;right=0;fillColor=none;rotation=-90;" parent="1" vertex="1">
          <mxGeometry x="1546.25" y="844.07" width="180" height="37.5" as="geometry" />
        </mxCell>
        <mxCell id="EWDZrCvJoFyOOxtHa1C8-14" value="" style="shape=partialRectangle;whiteSpace=wrap;html=1;bottom=0;right=0;fillColor=none;rotation=-90;" parent="1" vertex="1">
          <mxGeometry x="1602.19" y="788.7600000000001" width="69.38" height="37.5" as="geometry" />
        </mxCell>
        <mxCell id="EWDZrCvJoFyOOxtHa1C8-15" value="Ayuda" style="whiteSpace=wrap;html=1;rounded=1;shadow=1;strokeWidth=1;fontSize=16;align=center;fillColor=#f5f5f5;strokeColor=#666666;" parent="1" vertex="1">
          <mxGeometry x="3918.75" y="732.82" width="275" height="40" as="geometry" />
        </mxCell>
        <mxCell id="EWDZrCvJoFyOOxtHa1C8-16" value="Acerca de" style="whiteSpace=wrap;html=1;rounded=1;shadow=1;strokeWidth=1;fontSize=16;align=center;fillColor=#f5f5f5;strokeColor=#666666;" parent="1" vertex="1">
          <mxGeometry x="3993.75" y="802.82" width="125" height="80" as="geometry" />
        </mxCell>
        <mxCell id="EWDZrCvJoFyOOxtHa1C8-17" value="Manual de Usuario" style="whiteSpace=wrap;html=1;rounded=1;shadow=1;strokeWidth=1;fontSize=16;align=center;fillColor=#f5f5f5;strokeColor=#666666;" parent="1" vertex="1">
          <mxGeometry x="3993.75" y="910.32" width="125" height="80" as="geometry" />
        </mxCell>
        <mxCell id="EWDZrCvJoFyOOxtHa1C8-18" value="Índices de Búsqueda" style="whiteSpace=wrap;html=1;rounded=1;shadow=1;strokeWidth=1;fontSize=16;align=center;fillColor=#f5f5f5;strokeColor=#666666;" parent="1" vertex="1">
          <mxGeometry x="3993.75" y="1012.82" width="125" height="80" as="geometry" />
        </mxCell>
        <mxCell id="EWDZrCvJoFyOOxtHa1C8-19" value="" style="shape=partialRectangle;whiteSpace=wrap;html=1;top=0;left=0;fillColor=none;rotation=90;" parent="1" vertex="1">
          <mxGeometry x="3828.75" y="900.6400000000001" width="293.75" height="38.75" as="geometry" />
        </mxCell>
        <mxCell id="EWDZrCvJoFyOOxtHa1C8-20" value="" style="shape=partialRectangle;whiteSpace=wrap;html=1;bottom=0;right=0;fillColor=none;rotation=-90;" parent="1" vertex="1">
          <mxGeometry x="3885" y="844.3900000000001" width="180" height="37.5" as="geometry" />
        </mxCell>
        <mxCell id="EWDZrCvJoFyOOxtHa1C8-21" value="" style="shape=partialRectangle;whiteSpace=wrap;html=1;bottom=0;right=0;fillColor=none;rotation=-90;" parent="1" vertex="1">
          <mxGeometry x="3940.94" y="789.0800000000002" width="69.38" height="37.5" as="geometry" />
        </mxCell>
        <mxCell id="EWDZrCvJoFyOOxtHa1C8-23" value="Clientes" style="whiteSpace=wrap;html=1;rounded=1;shadow=1;strokeWidth=1;fontSize=16;align=center;fillColor=#f5f5f5;strokeColor=#666666;" parent="1" vertex="1">
          <mxGeometry x="2367.5" y="732.5" width="275" height="40" as="geometry" />
        </mxCell>
        <mxCell id="EWDZrCvJoFyOOxtHa1C8-24" value="Modificar" style="whiteSpace=wrap;html=1;rounded=1;shadow=1;strokeWidth=1;fontSize=16;align=center;fillColor=#f5f5f5;strokeColor=#666666;" parent="1" vertex="1">
          <mxGeometry x="2437.5" y="910" width="125" height="80" as="geometry" />
        </mxCell>
        <mxCell id="EWDZrCvJoFyOOxtHa1C8-25" value="Eliminar" style="whiteSpace=wrap;html=1;rounded=1;shadow=1;strokeWidth=1;fontSize=16;align=center;fillColor=#f5f5f5;strokeColor=#666666;" parent="1" vertex="1">
          <mxGeometry x="2437.5" y="1012.5" width="125" height="80" as="geometry" />
        </mxCell>
        <mxCell id="EWDZrCvJoFyOOxtHa1C8-26" value="Agregar" style="whiteSpace=wrap;html=1;rounded=1;shadow=1;strokeWidth=1;fontSize=16;align=center;fillColor=#f5f5f5;strokeColor=#666666;" parent="1" vertex="1">
          <mxGeometry x="2437.5" y="802.5" width="125" height="80" as="geometry" />
        </mxCell>
        <mxCell id="EWDZrCvJoFyOOxtHa1C8-27" value="" style="shape=partialRectangle;whiteSpace=wrap;html=1;top=0;left=0;fillColor=none;rotation=90;" parent="1" vertex="1">
          <mxGeometry x="2270" y="900" width="293.75" height="38.75" as="geometry" />
        </mxCell>
        <mxCell id="EWDZrCvJoFyOOxtHa1C8-28" value="" style="shape=partialRectangle;whiteSpace=wrap;html=1;bottom=0;right=0;fillColor=none;rotation=-90;" parent="1" vertex="1">
          <mxGeometry x="2326.25" y="843.75" width="180" height="37.5" as="geometry" />
        </mxCell>
        <mxCell id="EWDZrCvJoFyOOxtHa1C8-29" value="" style="shape=partialRectangle;whiteSpace=wrap;html=1;bottom=0;right=0;fillColor=none;rotation=-90;" parent="1" vertex="1">
          <mxGeometry x="2382.19" y="788.44" width="69.38" height="37.5" as="geometry" />
        </mxCell>
        <mxCell id="x82hmF_93pj6DDaHTNPA-40" style="edgeStyle=orthogonalEdgeStyle;rounded=0;orthogonalLoop=1;jettySize=auto;html=1;exitX=0.5;exitY=1;exitDx=0;exitDy=0;" edge="1" parent="1" source="EWDZrCvJoFyOOxtHa1C8-38">
          <mxGeometry relative="1" as="geometry">
            <mxPoint x="2219.9999999999995" y="1000" as="targetPoint" />
          </mxGeometry>
        </mxCell>
        <mxCell id="EWDZrCvJoFyOOxtHa1C8-38" value="Modificar" style="whiteSpace=wrap;html=1;rounded=1;shadow=1;strokeWidth=1;fontSize=16;align=center;fillColor=#f5f5f5;strokeColor=#666666;" parent="1" vertex="1">
          <mxGeometry x="2147.5" y="910" width="125" height="80" as="geometry" />
        </mxCell>
        <mxCell id="EWDZrCvJoFyOOxtHa1C8-39" value="Eliminar" style="whiteSpace=wrap;html=1;rounded=1;shadow=1;strokeWidth=1;fontSize=16;align=center;fillColor=#f5f5f5;strokeColor=#666666;" parent="1" vertex="1">
          <mxGeometry x="2147.5" y="1012.5" width="125" height="80" as="geometry" />
        </mxCell>
        <mxCell id="EWDZrCvJoFyOOxtHa1C8-40" value="Agregar" style="whiteSpace=wrap;html=1;rounded=1;shadow=1;strokeWidth=1;fontSize=16;align=center;fillColor=#f5f5f5;strokeColor=#666666;" parent="1" vertex="1">
          <mxGeometry x="2147.5" y="802.5" width="125" height="80" as="geometry" />
        </mxCell>
        <mxCell id="EWDZrCvJoFyOOxtHa1C8-41" value="" style="shape=partialRectangle;whiteSpace=wrap;html=1;top=0;left=0;fillColor=none;rotation=90;" parent="1" vertex="1">
          <mxGeometry x="1980" y="900" width="293.75" height="38.75" as="geometry" />
        </mxCell>
        <mxCell id="EWDZrCvJoFyOOxtHa1C8-42" value="" style="shape=partialRectangle;whiteSpace=wrap;html=1;bottom=0;right=0;fillColor=none;rotation=-90;" parent="1" vertex="1">
          <mxGeometry x="2036.25" y="843.75" width="180" height="37.5" as="geometry" />
        </mxCell>
        <mxCell id="EWDZrCvJoFyOOxtHa1C8-43" value="" style="shape=partialRectangle;whiteSpace=wrap;html=1;bottom=0;right=0;fillColor=none;rotation=-90;" parent="1" vertex="1">
          <mxGeometry x="2092.19" y="788.44" width="69.38" height="37.5" as="geometry" />
        </mxCell>
        <mxCell id="EWDZrCvJoFyOOxtHa1C8-56" value="Modificar" style="whiteSpace=wrap;html=1;rounded=1;shadow=1;strokeWidth=1;fontSize=16;align=center;fillColor=#f5f5f5;strokeColor=#666666;" parent="1" vertex="1">
          <mxGeometry x="2787.5" y="910.32" width="125" height="80" as="geometry" />
        </mxCell>
        <mxCell id="EWDZrCvJoFyOOxtHa1C8-57" value="Eliminar" style="whiteSpace=wrap;html=1;rounded=1;shadow=1;strokeWidth=1;fontSize=16;align=center;fillColor=#f5f5f5;strokeColor=#666666;" parent="1" vertex="1">
          <mxGeometry x="2787.5" y="1012.82" width="125" height="80" as="geometry" />
        </mxCell>
        <mxCell id="EWDZrCvJoFyOOxtHa1C8-58" value="Agregar" style="whiteSpace=wrap;html=1;rounded=1;shadow=1;strokeWidth=1;fontSize=16;align=center;fillColor=#f5f5f5;strokeColor=#666666;" parent="1" vertex="1">
          <mxGeometry x="2787.5" y="802.82" width="125" height="80" as="geometry" />
        </mxCell>
        <mxCell id="EWDZrCvJoFyOOxtHa1C8-59" value="" style="shape=partialRectangle;whiteSpace=wrap;html=1;top=0;left=0;fillColor=none;rotation=90;" parent="1" vertex="1">
          <mxGeometry x="2620" y="900.32" width="293.75" height="38.75" as="geometry" />
        </mxCell>
        <mxCell id="EWDZrCvJoFyOOxtHa1C8-60" value="" style="shape=partialRectangle;whiteSpace=wrap;html=1;bottom=0;right=0;fillColor=none;rotation=-90;" parent="1" vertex="1">
          <mxGeometry x="2676.25" y="844.07" width="180" height="37.5" as="geometry" />
        </mxCell>
        <mxCell id="EWDZrCvJoFyOOxtHa1C8-61" value="" style="shape=partialRectangle;whiteSpace=wrap;html=1;bottom=0;right=0;fillColor=none;rotation=-90;" parent="1" vertex="1">
          <mxGeometry x="2732.19" y="788.7600000000001" width="69.38" height="37.5" as="geometry" />
        </mxCell>
        <mxCell id="EWDZrCvJoFyOOxtHa1C8-64" value="Registrar Compra" style="whiteSpace=wrap;html=1;rounded=1;shadow=1;strokeWidth=1;fontSize=16;align=center;fillColor=#f5f5f5;strokeColor=#666666;" parent="1" vertex="1">
          <mxGeometry x="3061.25" y="910" width="125" height="80" as="geometry" />
        </mxCell>
        <mxCell id="EWDZrCvJoFyOOxtHa1C8-65" value="Registrar Venta" style="whiteSpace=wrap;html=1;rounded=1;shadow=1;strokeWidth=1;fontSize=16;align=center;fillColor=#f5f5f5;strokeColor=#666666;" parent="1" vertex="1">
          <mxGeometry x="3061.25" y="802.5" width="125" height="80" as="geometry" />
        </mxCell>
        <mxCell id="EWDZrCvJoFyOOxtHa1C8-66" value="" style="shape=partialRectangle;whiteSpace=wrap;html=1;bottom=0;right=0;fillColor=none;rotation=-90;" parent="1" vertex="1">
          <mxGeometry x="2950" y="843.75" width="180" height="37.5" as="geometry" />
        </mxCell>
        <mxCell id="EWDZrCvJoFyOOxtHa1C8-67" value="" style="shape=partialRectangle;whiteSpace=wrap;html=1;bottom=0;right=0;fillColor=none;rotation=-90;" parent="1" vertex="1">
          <mxGeometry x="3005.94" y="788.44" width="69.38" height="37.5" as="geometry" />
        </mxCell>
        <mxCell id="x82hmF_93pj6DDaHTNPA-2" value="" style="shape=partialRectangle;whiteSpace=wrap;html=1;top=0;left=0;fillColor=none;rotation=90;" vertex="1" parent="1">
          <mxGeometry x="3195.5" y="898.9000000000001" width="293.75" height="38.75" as="geometry" />
        </mxCell>
        <mxCell id="x82hmF_93pj6DDaHTNPA-3" value="" style="shape=partialRectangle;whiteSpace=wrap;html=1;bottom=0;right=0;fillColor=none;rotation=-90;" vertex="1" parent="1">
          <mxGeometry x="3251.75" y="842.6500000000001" width="180" height="37.5" as="geometry" />
        </mxCell>
        <mxCell id="x82hmF_93pj6DDaHTNPA-4" value="" style="shape=partialRectangle;whiteSpace=wrap;html=1;bottom=0;right=0;fillColor=none;rotation=-90;" vertex="1" parent="1">
          <mxGeometry x="3307.69" y="787.3400000000001" width="69.38" height="37.5" as="geometry" />
        </mxCell>
        <mxCell id="x82hmF_93pj6DDaHTNPA-5" value="" style="shape=partialRectangle;whiteSpace=wrap;html=1;top=0;left=0;fillColor=none;rotation=90;" vertex="1" parent="1">
          <mxGeometry x="3195.5" y="1132.5000000000002" width="293.75" height="38.75" as="geometry" />
        </mxCell>
        <mxCell id="x82hmF_93pj6DDaHTNPA-6" value="" style="shape=partialRectangle;whiteSpace=wrap;html=1;bottom=0;right=0;fillColor=none;rotation=-90;" vertex="1" parent="1">
          <mxGeometry x="3251.75" y="1060.0000000000002" width="180" height="37.5" as="geometry" />
        </mxCell>
        <mxCell id="x82hmF_93pj6DDaHTNPA-8" value="" style="shape=partialRectangle;whiteSpace=wrap;html=1;top=0;left=0;fillColor=none;rotation=90;" vertex="1" parent="1">
          <mxGeometry x="4120" y="900.32" width="293.75" height="38.75" as="geometry" />
        </mxCell>
        <mxCell id="x82hmF_93pj6DDaHTNPA-9" value="" style="shape=partialRectangle;whiteSpace=wrap;html=1;bottom=0;right=0;fillColor=none;rotation=-90;" vertex="1" parent="1">
          <mxGeometry x="4176.25" y="844.07" width="180" height="37.5" as="geometry" />
        </mxCell>
        <mxCell id="x82hmF_93pj6DDaHTNPA-10" value="" style="shape=partialRectangle;whiteSpace=wrap;html=1;bottom=0;right=0;fillColor=none;rotation=-90;" vertex="1" parent="1">
          <mxGeometry x="4232.1900000000005" y="788.7600000000001" width="69.38" height="37.5" as="geometry" />
        </mxCell>
        <mxCell id="x82hmF_93pj6DDaHTNPA-11" value="" style="shape=partialRectangle;whiteSpace=wrap;html=1;top=0;left=0;fillColor=none;rotation=90;" vertex="1" parent="1">
          <mxGeometry x="4120" y="1133.9200000000003" width="293.75" height="38.75" as="geometry" />
        </mxCell>
        <mxCell id="x82hmF_93pj6DDaHTNPA-12" value="" style="shape=partialRectangle;whiteSpace=wrap;html=1;bottom=0;right=0;fillColor=none;rotation=-90;" vertex="1" parent="1">
          <mxGeometry x="4176.25" y="1061.4200000000003" width="180" height="37.5" as="geometry" />
        </mxCell>
        <mxCell id="x82hmF_93pj6DDaHTNPA-13" value="&lt;b&gt;&lt;font style=&quot;font-size: 24px;&quot;&gt;1.0&lt;/font&gt;&lt;/b&gt;" style="text;html=1;align=center;verticalAlign=middle;whiteSpace=wrap;rounded=0;" vertex="1" parent="1">
          <mxGeometry x="2326.25" y="280" width="60" height="30" as="geometry" />
        </mxCell>
        <mxCell id="x82hmF_93pj6DDaHTNPA-14" value="&lt;b&gt;&lt;font style=&quot;font-size: 24px;&quot;&gt;2.0&lt;/font&gt;&lt;/b&gt;" style="text;html=1;align=center;verticalAlign=middle;whiteSpace=wrap;rounded=0;" vertex="1" parent="1">
          <mxGeometry x="1485" y="480" width="60" height="30" as="geometry" />
        </mxCell>
        <mxCell id="x82hmF_93pj6DDaHTNPA-16" value="&lt;b&gt;&lt;font style=&quot;font-size: 24px;&quot;&gt;3.0&lt;/font&gt;&lt;/b&gt;" style="text;html=1;align=center;verticalAlign=middle;whiteSpace=wrap;rounded=0;" vertex="1" parent="1">
          <mxGeometry x="3190" y="470" width="60" height="30" as="geometry" />
        </mxCell>
        <mxCell id="x82hmF_93pj6DDaHTNPA-17" value="&lt;b&gt;&lt;font style=&quot;font-size: 24px;&quot;&gt;3.0&lt;/font&gt;&lt;/b&gt;" style="text;html=1;align=center;verticalAlign=middle;whiteSpace=wrap;rounded=0;" vertex="1" parent="1">
          <mxGeometry x="1185" y="700" width="60" height="30" as="geometry" />
        </mxCell>
        <mxCell id="x82hmF_93pj6DDaHTNPA-18" value="&lt;b&gt;&lt;font style=&quot;font-size: 24px;&quot;&gt;4.0&lt;/font&gt;&lt;/b&gt;" style="text;html=1;align=center;verticalAlign=middle;whiteSpace=wrap;rounded=0;" vertex="1" parent="1">
          <mxGeometry x="1485" y="700" width="60" height="30" as="geometry" />
        </mxCell>
        <mxCell id="x82hmF_93pj6DDaHTNPA-19" value="&lt;b&gt;&lt;font style=&quot;font-size: 24px;&quot;&gt;5&lt;/font&gt;&lt;/b&gt;&lt;b style=&quot;background-color: initial;&quot;&gt;&lt;font style=&quot;font-size: 24px;&quot;&gt;.0&lt;/font&gt;&lt;/b&gt;" style="text;html=1;align=center;verticalAlign=middle;whiteSpace=wrap;rounded=0;" vertex="1" parent="1">
          <mxGeometry x="1795" y="690" width="60" height="30" as="geometry" />
        </mxCell>
        <mxCell id="x82hmF_93pj6DDaHTNPA-20" value="&lt;b&gt;&lt;font style=&quot;font-size: 24px;&quot;&gt;3.1&lt;/font&gt;&lt;/b&gt;" style="text;html=1;align=center;verticalAlign=middle;whiteSpace=wrap;rounded=0;" vertex="1" parent="1">
          <mxGeometry x="1166.25" y="790.95" width="60" height="30" as="geometry" />
        </mxCell>
        <mxCell id="x82hmF_93pj6DDaHTNPA-21" value="&lt;b&gt;&lt;font style=&quot;font-size: 24px;&quot;&gt;3.2&lt;/font&gt;&lt;/b&gt;" style="text;html=1;align=center;verticalAlign=middle;whiteSpace=wrap;rounded=0;" vertex="1" parent="1">
          <mxGeometry x="1166.25" y="898.9000000000001" width="60" height="30" as="geometry" />
        </mxCell>
        <mxCell id="x82hmF_93pj6DDaHTNPA-22" value="&lt;b&gt;&lt;font style=&quot;font-size: 24px;&quot;&gt;3.3&lt;/font&gt;&lt;/b&gt;" style="text;html=1;align=center;verticalAlign=middle;whiteSpace=wrap;rounded=0;" vertex="1" parent="1">
          <mxGeometry x="1170" y="1000" width="60" height="30" as="geometry" />
        </mxCell>
        <mxCell id="x82hmF_93pj6DDaHTNPA-23" value="" style="endArrow=none;html=1;rounded=0;" edge="1" parent="1">
          <mxGeometry width="50" height="50" relative="1" as="geometry">
            <mxPoint x="3725.68" y="735" as="sourcePoint" />
            <mxPoint x="3725.81" y="700" as="targetPoint" />
          </mxGeometry>
        </mxCell>
        <mxCell id="x82hmF_93pj6DDaHTNPA-24" value="Usuarios" style="whiteSpace=wrap;html=1;rounded=1;shadow=1;strokeWidth=1;fontSize=16;align=center;fillColor=#f5f5f5;strokeColor=#666666;" vertex="1" parent="1">
          <mxGeometry x="3610" y="732.5" width="275" height="40" as="geometry" />
        </mxCell>
        <mxCell id="x82hmF_93pj6DDaHTNPA-31" value="Modificar" style="whiteSpace=wrap;html=1;rounded=1;shadow=1;strokeWidth=1;fontSize=16;align=center;fillColor=#f5f5f5;strokeColor=#666666;" vertex="1" parent="1">
          <mxGeometry x="3703.75" y="908.9000000000001" width="125" height="80" as="geometry" />
        </mxCell>
        <mxCell id="x82hmF_93pj6DDaHTNPA-32" value="Eliminar" style="whiteSpace=wrap;html=1;rounded=1;shadow=1;strokeWidth=1;fontSize=16;align=center;fillColor=#f5f5f5;strokeColor=#666666;" vertex="1" parent="1">
          <mxGeometry x="3703.75" y="1011.4000000000001" width="125" height="80" as="geometry" />
        </mxCell>
        <mxCell id="x82hmF_93pj6DDaHTNPA-33" value="Agregar" style="whiteSpace=wrap;html=1;rounded=1;shadow=1;strokeWidth=1;fontSize=16;align=center;fillColor=#f5f5f5;strokeColor=#666666;" vertex="1" parent="1">
          <mxGeometry x="3703.75" y="801.4000000000001" width="125" height="80" as="geometry" />
        </mxCell>
        <mxCell id="x82hmF_93pj6DDaHTNPA-34" value="" style="shape=partialRectangle;whiteSpace=wrap;html=1;top=0;left=0;fillColor=none;rotation=90;" vertex="1" parent="1">
          <mxGeometry x="3536.25" y="898.9000000000001" width="293.75" height="38.75" as="geometry" />
        </mxCell>
        <mxCell id="x82hmF_93pj6DDaHTNPA-35" value="" style="shape=partialRectangle;whiteSpace=wrap;html=1;bottom=0;right=0;fillColor=none;rotation=-90;" vertex="1" parent="1">
          <mxGeometry x="3592.5" y="842.6500000000001" width="180" height="37.5" as="geometry" />
        </mxCell>
        <mxCell id="x82hmF_93pj6DDaHTNPA-36" value="" style="shape=partialRectangle;whiteSpace=wrap;html=1;bottom=0;right=0;fillColor=none;rotation=-90;" vertex="1" parent="1">
          <mxGeometry x="3648.44" y="787.3400000000001" width="69.38" height="37.5" as="geometry" />
        </mxCell>
        <mxCell id="x82hmF_93pj6DDaHTNPA-37" value="" style="endArrow=none;html=1;rounded=0;" edge="1" parent="1">
          <mxGeometry width="50" height="50" relative="1" as="geometry">
            <mxPoint x="4350.96" y="735" as="sourcePoint" />
            <mxPoint x="4351.09" y="700" as="targetPoint" />
          </mxGeometry>
        </mxCell>
        <mxCell id="x82hmF_93pj6DDaHTNPA-38" value="&lt;b&gt;&lt;font style=&quot;font-size: 24px;&quot;&gt;4.1&lt;/font&gt;&lt;/b&gt;" style="text;html=1;align=center;verticalAlign=middle;whiteSpace=wrap;rounded=0;" vertex="1" parent="1">
          <mxGeometry x="1460" y="787.34" width="60" height="30" as="geometry" />
        </mxCell>
        <mxCell id="x82hmF_93pj6DDaHTNPA-39" value="&lt;b&gt;&lt;font style=&quot;font-size: 24px;&quot;&gt;5.1&lt;/font&gt;&lt;/b&gt;" style="text;html=1;align=center;verticalAlign=middle;whiteSpace=wrap;rounded=0;" vertex="1" parent="1">
          <mxGeometry x="1790" y="787.34" width="60" height="30" as="geometry" />
        </mxCell>
        <mxCell id="x82hmF_93pj6DDaHTNPA-41" value="&lt;b&gt;&lt;font style=&quot;font-size: 24px;&quot;&gt;5.2&lt;/font&gt;&lt;/b&gt;" style="text;html=1;align=center;verticalAlign=middle;whiteSpace=wrap;rounded=0;" vertex="1" parent="1">
          <mxGeometry x="1790" y="903.2800000000001" width="60" height="30" as="geometry" />
        </mxCell>
        <mxCell id="x82hmF_93pj6DDaHTNPA-42" value="&lt;b&gt;&lt;font style=&quot;font-size: 24px;&quot;&gt;5.3&lt;/font&gt;&lt;/b&gt;" style="text;html=1;align=center;verticalAlign=middle;whiteSpace=wrap;rounded=0;" vertex="1" parent="1">
          <mxGeometry x="1790" y="1012.82" width="60" height="30" as="geometry" />
        </mxCell>
        <mxCell id="x82hmF_93pj6DDaHTNPA-44" value="&lt;b style=&quot;background-color: initial;&quot;&gt;&lt;font style=&quot;font-size: 24px;&quot;&gt;6.0&lt;/font&gt;&lt;/b&gt;" style="text;html=1;align=center;verticalAlign=middle;whiteSpace=wrap;rounded=0;" vertex="1" parent="1">
          <mxGeometry x="2290" y="700" width="60" height="30" as="geometry" />
        </mxCell>
        <mxCell id="x82hmF_93pj6DDaHTNPA-45" value="&lt;b style=&quot;background-color: initial;&quot;&gt;&lt;font style=&quot;font-size: 24px;&quot;&gt;7.0&lt;/font&gt;&lt;/b&gt;" style="text;html=1;align=center;verticalAlign=middle;whiteSpace=wrap;rounded=0;" vertex="1" parent="1">
          <mxGeometry x="2580" y="702.5" width="60" height="30" as="geometry" />
        </mxCell>
        <mxCell id="x82hmF_93pj6DDaHTNPA-46" value="&lt;b&gt;&lt;font style=&quot;font-size: 24px;&quot;&gt;6.1&lt;/font&gt;&lt;/b&gt;" style="text;html=1;align=center;verticalAlign=middle;whiteSpace=wrap;rounded=0;" vertex="1" parent="1">
          <mxGeometry x="2280" y="786.1600000000001" width="60" height="30" as="geometry" />
        </mxCell>
        <mxCell id="x82hmF_93pj6DDaHTNPA-47" value="&lt;b&gt;&lt;font style=&quot;font-size: 24px;&quot;&gt;6.2&lt;/font&gt;&lt;/b&gt;" style="text;html=1;align=center;verticalAlign=middle;whiteSpace=wrap;rounded=0;" vertex="1" parent="1">
          <mxGeometry x="2280" y="902.1000000000001" width="60" height="30" as="geometry" />
        </mxCell>
        <mxCell id="x82hmF_93pj6DDaHTNPA-48" value="&lt;b&gt;&lt;font style=&quot;font-size: 24px;&quot;&gt;6.3&lt;/font&gt;&lt;/b&gt;" style="text;html=1;align=center;verticalAlign=middle;whiteSpace=wrap;rounded=0;" vertex="1" parent="1">
          <mxGeometry x="2280" y="1011.6400000000001" width="60" height="30" as="geometry" />
        </mxCell>
        <mxCell id="x82hmF_93pj6DDaHTNPA-49" value="&lt;b&gt;&lt;font style=&quot;font-size: 24px;&quot;&gt;7.1&lt;/font&gt;&lt;/b&gt;" style="text;html=1;align=center;verticalAlign=middle;whiteSpace=wrap;rounded=0;" vertex="1" parent="1">
          <mxGeometry x="2563.75" y="780" width="60" height="30" as="geometry" />
        </mxCell>
        <mxCell id="x82hmF_93pj6DDaHTNPA-50" value="&lt;b&gt;&lt;font style=&quot;font-size: 24px;&quot;&gt;7.2&lt;/font&gt;&lt;/b&gt;" style="text;html=1;align=center;verticalAlign=middle;whiteSpace=wrap;rounded=0;" vertex="1" parent="1">
          <mxGeometry x="2563.75" y="895.94" width="60" height="30" as="geometry" />
        </mxCell>
        <mxCell id="x82hmF_93pj6DDaHTNPA-51" value="&lt;b&gt;&lt;font style=&quot;font-size: 24px;&quot;&gt;7.3&lt;/font&gt;&lt;/b&gt;" style="text;html=1;align=center;verticalAlign=middle;whiteSpace=wrap;rounded=0;" vertex="1" parent="1">
          <mxGeometry x="2563.75" y="1005.4800000000001" width="60" height="30" as="geometry" />
        </mxCell>
        <mxCell id="x82hmF_93pj6DDaHTNPA-52" value="&lt;b&gt;&lt;font style=&quot;font-size: 24px;&quot;&gt;5.1&lt;/font&gt;&lt;/b&gt;" style="text;html=1;align=center;verticalAlign=middle;whiteSpace=wrap;rounded=0;" vertex="1" parent="1">
          <mxGeometry x="2926.5" y="797.5" width="60" height="30" as="geometry" />
        </mxCell>
        <mxCell id="x82hmF_93pj6DDaHTNPA-53" value="&lt;b&gt;&lt;font style=&quot;font-size: 24px;&quot;&gt;5.2&lt;/font&gt;&lt;/b&gt;" style="text;html=1;align=center;verticalAlign=middle;whiteSpace=wrap;rounded=0;" vertex="1" parent="1">
          <mxGeometry x="2926.5" y="913.44" width="60" height="30" as="geometry" />
        </mxCell>
        <mxCell id="x82hmF_93pj6DDaHTNPA-54" value="&lt;b&gt;&lt;font style=&quot;font-size: 24px;&quot;&gt;5.3&lt;/font&gt;&lt;/b&gt;" style="text;html=1;align=center;verticalAlign=middle;whiteSpace=wrap;rounded=0;" vertex="1" parent="1">
          <mxGeometry x="2926.5" y="1022.9800000000002" width="60" height="30" as="geometry" />
        </mxCell>
        <mxCell id="x82hmF_93pj6DDaHTNPA-55" value="&lt;b style=&quot;background-color: initial;&quot;&gt;&lt;font style=&quot;font-size: 24px;&quot;&gt;8.0&lt;/font&gt;&lt;/b&gt;" style="text;html=1;align=center;verticalAlign=middle;whiteSpace=wrap;rounded=0;" vertex="1" parent="1">
          <mxGeometry x="2912.5" y="700" width="60" height="30" as="geometry" />
        </mxCell>
        <mxCell id="x82hmF_93pj6DDaHTNPA-56" value="&lt;b style=&quot;background-color: initial;&quot;&gt;&lt;font style=&quot;font-size: 24px;&quot;&gt;9.0&lt;/font&gt;&lt;/b&gt;" style="text;html=1;align=center;verticalAlign=middle;whiteSpace=wrap;rounded=0;" vertex="1" parent="1">
          <mxGeometry x="3228.5" y="702.82" width="60" height="30" as="geometry" />
        </mxCell>
        <mxCell id="x82hmF_93pj6DDaHTNPA-57" value="&lt;b style=&quot;background-color: initial;&quot;&gt;&lt;font style=&quot;font-size: 24px;&quot;&gt;10.0&lt;/font&gt;&lt;/b&gt;" style="text;html=1;align=center;verticalAlign=middle;whiteSpace=wrap;rounded=0;" vertex="1" parent="1">
          <mxGeometry x="3520" y="702.82" width="60" height="30" as="geometry" />
        </mxCell>
        <mxCell id="x82hmF_93pj6DDaHTNPA-58" value="&lt;b style=&quot;background-color: initial;&quot;&gt;&lt;font style=&quot;font-size: 24px;&quot;&gt;11.0&lt;/font&gt;&lt;/b&gt;" style="text;html=1;align=center;verticalAlign=middle;whiteSpace=wrap;rounded=0;" vertex="1" parent="1">
          <mxGeometry x="3850" y="702.5" width="60" height="30" as="geometry" />
        </mxCell>
        <mxCell id="x82hmF_93pj6DDaHTNPA-59" value="&lt;b style=&quot;background-color: initial;&quot;&gt;&lt;font style=&quot;font-size: 24px;&quot;&gt;12.0&lt;/font&gt;&lt;/b&gt;" style="text;html=1;align=center;verticalAlign=middle;whiteSpace=wrap;rounded=0;" vertex="1" parent="1">
          <mxGeometry x="4153.75" y="700" width="60" height="30" as="geometry" />
        </mxCell>
        <mxCell id="x82hmF_93pj6DDaHTNPA-60" value="&lt;b style=&quot;background-color: initial;&quot;&gt;&lt;font style=&quot;font-size: 24px;&quot;&gt;13.0&lt;/font&gt;&lt;/b&gt;" style="text;html=1;align=center;verticalAlign=middle;whiteSpace=wrap;rounded=0;" vertex="1" parent="1">
          <mxGeometry x="4420" y="700" width="60" height="30" as="geometry" />
        </mxCell>
        <mxCell id="x82hmF_93pj6DDaHTNPA-62" value="&lt;b style=&quot;background-color: initial;&quot;&gt;&lt;font style=&quot;font-size: 24px;&quot;&gt;9.1&lt;/font&gt;&lt;/b&gt;" style="text;html=1;align=center;verticalAlign=middle;whiteSpace=wrap;rounded=0;" vertex="1" parent="1">
          <mxGeometry x="3201.5" y="793.1300000000001" width="60" height="30" as="geometry" />
        </mxCell>
        <mxCell id="x82hmF_93pj6DDaHTNPA-63" value="&lt;b style=&quot;background-color: initial;&quot;&gt;&lt;font style=&quot;font-size: 24px;&quot;&gt;9.2&lt;/font&gt;&lt;/b&gt;" style="text;html=1;align=center;verticalAlign=middle;whiteSpace=wrap;rounded=0;" vertex="1" parent="1">
          <mxGeometry x="3201.5" y="895.94" width="60" height="30" as="geometry" />
        </mxCell>
        <mxCell id="x82hmF_93pj6DDaHTNPA-64" value="&lt;b&gt;&lt;font style=&quot;font-size: 24px;&quot;&gt;10.5&lt;/font&gt;&lt;/b&gt;" style="text;html=1;align=center;verticalAlign=middle;whiteSpace=wrap;rounded=0;" vertex="1" parent="1">
          <mxGeometry x="3503.5" y="1230.99" width="60" height="30" as="geometry" />
        </mxCell>
        <mxCell id="x82hmF_93pj6DDaHTNPA-65" value="&lt;b&gt;&lt;font style=&quot;font-size: 24px;&quot;&gt;10.1&lt;/font&gt;&lt;/b&gt;" style="text;html=1;align=center;verticalAlign=middle;whiteSpace=wrap;rounded=0;" vertex="1" parent="1">
          <mxGeometry x="3497" y="794.6500000000001" width="60" height="30" as="geometry" />
        </mxCell>
        <mxCell id="x82hmF_93pj6DDaHTNPA-66" value="&lt;b&gt;&lt;font style=&quot;font-size: 24px;&quot;&gt;10.2&lt;/font&gt;&lt;/b&gt;" style="text;html=1;align=center;verticalAlign=middle;whiteSpace=wrap;rounded=0;" vertex="1" parent="1">
          <mxGeometry x="3497" y="904.1900000000003" width="60" height="30" as="geometry" />
        </mxCell>
        <mxCell id="x82hmF_93pj6DDaHTNPA-67" value="&lt;b&gt;&lt;font style=&quot;font-size: 24px;&quot;&gt;10.3&lt;/font&gt;&lt;/b&gt;" style="text;html=1;align=center;verticalAlign=middle;whiteSpace=wrap;rounded=0;" vertex="1" parent="1">
          <mxGeometry x="3503.5" y="1010.58" width="60" height="30" as="geometry" />
        </mxCell>
        <mxCell id="x82hmF_93pj6DDaHTNPA-68" value="&lt;b&gt;&lt;font style=&quot;font-size: 24px;&quot;&gt;10.4&lt;/font&gt;&lt;/b&gt;" style="text;html=1;align=center;verticalAlign=middle;whiteSpace=wrap;rounded=0;" vertex="1" parent="1">
          <mxGeometry x="3503.5" y="1126.52" width="60" height="30" as="geometry" />
        </mxCell>
        <mxCell id="x82hmF_93pj6DDaHTNPA-76" value="&lt;b&gt;&lt;font style=&quot;font-size: 24px;&quot;&gt;11.1&lt;/font&gt;&lt;/b&gt;" style="text;html=1;align=center;verticalAlign=middle;whiteSpace=wrap;rounded=0;" vertex="1" parent="1">
          <mxGeometry x="3843.5" y="789.08" width="60" height="30" as="geometry" />
        </mxCell>
        <mxCell id="x82hmF_93pj6DDaHTNPA-77" value="&lt;b&gt;&lt;font style=&quot;font-size: 24px;&quot;&gt;11.2&lt;/font&gt;&lt;/b&gt;" style="text;html=1;align=center;verticalAlign=middle;whiteSpace=wrap;rounded=0;" vertex="1" parent="1">
          <mxGeometry x="3843.5" y="898.6200000000002" width="60" height="30" as="geometry" />
        </mxCell>
        <mxCell id="x82hmF_93pj6DDaHTNPA-78" value="&lt;b&gt;&lt;font style=&quot;font-size: 24px;&quot;&gt;11.3&lt;/font&gt;&lt;/b&gt;" style="text;html=1;align=center;verticalAlign=middle;whiteSpace=wrap;rounded=0;" vertex="1" parent="1">
          <mxGeometry x="3850" y="1005.01" width="60" height="30" as="geometry" />
        </mxCell>
        <mxCell id="x82hmF_93pj6DDaHTNPA-86" value="&lt;b&gt;&lt;font style=&quot;font-size: 24px;&quot;&gt;12.3&lt;/font&gt;&lt;/b&gt;" style="text;html=1;align=center;verticalAlign=middle;whiteSpace=wrap;rounded=0;" vertex="1" parent="1">
          <mxGeometry x="4122.5" y="992.9799999999999" width="60" height="30" as="geometry" />
        </mxCell>
        <mxCell id="x82hmF_93pj6DDaHTNPA-87" value="&lt;b&gt;&lt;font style=&quot;font-size: 24px;&quot;&gt;12.1&lt;/font&gt;&lt;/b&gt;" style="text;html=1;align=center;verticalAlign=middle;whiteSpace=wrap;rounded=0;" vertex="1" parent="1">
          <mxGeometry x="4122.5" y="780" width="60" height="30" as="geometry" />
        </mxCell>
        <mxCell id="x82hmF_93pj6DDaHTNPA-88" value="&lt;b&gt;&lt;font style=&quot;font-size: 24px;&quot;&gt;12.2&lt;/font&gt;&lt;/b&gt;" style="text;html=1;align=center;verticalAlign=middle;whiteSpace=wrap;rounded=0;" vertex="1" parent="1">
          <mxGeometry x="4122.5" y="885.0000000000001" width="60" height="30" as="geometry" />
        </mxCell>
        <mxCell id="x82hmF_93pj6DDaHTNPA-91" value="&lt;b&gt;&lt;font style=&quot;font-size: 24px;&quot;&gt;13.3&lt;/font&gt;&lt;/b&gt;" style="text;html=1;align=center;verticalAlign=middle;whiteSpace=wrap;rounded=0;" vertex="1" parent="1">
          <mxGeometry x="4413.75" y="999.1399999999999" width="60" height="30" as="geometry" />
        </mxCell>
        <mxCell id="x82hmF_93pj6DDaHTNPA-92" value="&lt;b&gt;&lt;font style=&quot;font-size: 24px;&quot;&gt;13.1&lt;/font&gt;&lt;/b&gt;" style="text;html=1;align=center;verticalAlign=middle;whiteSpace=wrap;rounded=0;" vertex="1" parent="1">
          <mxGeometry x="4413.75" y="786.16" width="60" height="30" as="geometry" />
        </mxCell>
        <mxCell id="x82hmF_93pj6DDaHTNPA-93" value="&lt;b&gt;&lt;font style=&quot;font-size: 24px;&quot;&gt;13.2&lt;/font&gt;&lt;/b&gt;" style="text;html=1;align=center;verticalAlign=middle;whiteSpace=wrap;rounded=0;" vertex="1" parent="1">
          <mxGeometry x="4413.75" y="891.1600000000001" width="60" height="30" as="geometry" />
        </mxCell>
        <mxCell id="x82hmF_93pj6DDaHTNPA-94" value="&lt;b&gt;&lt;font style=&quot;font-size: 24px;&quot;&gt;13.5&lt;/font&gt;&lt;/b&gt;" style="text;html=1;align=center;verticalAlign=middle;whiteSpace=wrap;rounded=0;" vertex="1" parent="1">
          <mxGeometry x="4420" y="1211.4899999999998" width="60" height="30" as="geometry" />
        </mxCell>
        <mxCell id="x82hmF_93pj6DDaHTNPA-95" value="&lt;b&gt;&lt;font style=&quot;font-size: 24px;&quot;&gt;13.4&lt;/font&gt;&lt;/b&gt;" style="text;html=1;align=center;verticalAlign=middle;whiteSpace=wrap;rounded=0;" vertex="1" parent="1">
          <mxGeometry x="4420" y="1103.51" width="60" height="30" as="geometry" />
        </mxCell>
      </root>
    </mxGraphModel>
  </diagram>
</mxfile>
